<?xml version="1.0" encoding="UTF-8"?>
<svg version="1.1" xmlns="http://www.w3.org/2000/svg" width="500" height="500">
<path d="M0 0 C165 0 330 0 500 0 C500 165 500 330 500 500 C335 500 170 500 0 500 C0 335 0 170 0 0 Z " fill="#FEFEFE" transform="translate(0,0)"/>
<path d="M0 0 C1.16660156 0.61359375 2.33320313 1.2271875 3.53515625 1.859375 C16.08421135 8.70688646 27.44487775 17.31393714 37.8984375 27.05078125 C39.77927667 28.79527706 41.70618031 30.43467568 43.6875 32.0625 C47.55013196 35.3605245 50.73105543 39.12569532 54 43 C54.83660156 43.94875 55.67320312 44.8975 56.53515625 45.875 C88.20337999 82.00107005 104.49093375 128.76430217 104.375 176.5625 C104.37512085 177.33903931 104.3752417 178.11557861 104.37536621 178.91564941 C104.34524929 192.60624172 102.97202975 205.61507836 100 219 C99.72963426 220.37848892 99.46123627 221.75736605 99.1953125 223.13671875 C89.41219075 268.46518288 59.42430539 311.09074438 22 338 C21.14535156 338.62116699 21.14535156 338.62116699 20.2734375 339.25488281 C-22.92300696 370.32048721 -75.77198859 380.85604312 -128 374 C-156.14085417 369.27889516 -184.76331591 358.88043356 -208 342 C-209.01407425 341.39756973 -210.0281485 340.79513947 -211.07295227 340.17445374 C-213.23691201 338.34064567 -213.92709745 337.32951727 -214.54622746 334.5310688 C-214.74077069 331.29519832 -214.74141761 328.10729302 -214.68115234 324.8659668 C-214.68246658 323.02144676 -214.68246658 323.02144676 -214.68380737 321.1396637 C-214.68034752 317.77555973 -214.65030198 314.41367572 -214.60836363 311.04996467 C-214.570808 307.53197786 -214.56732753 304.01396017 -214.56021118 300.49580383 C-214.54157625 293.83748414 -214.49235851 287.17975686 -214.43211424 280.52169782 C-214.35842092 272.19621965 -214.32561666 263.87064488 -214.29296875 255.54492188 C-214.23456143 240.69615332 -214.11436722 225.8486771 -214 211 C-183.97 211 -153.94 211 -123 211 C-123 200.77 -123 190.54 -123 180 C-153.03 180 -183.06 180 -214 180 C-214 144.36 -214 108.72 -214 72 C-183.97 72 -153.94 72 -123 72 C-123 70.68 -123 69.36 -123 68 C-166.89 68 -210.78 68 -256 68 C-256 142.91 -256 217.82 -256 295 C-260.51125402 290.48874598 -260.51125402 290.48874598 -262.296875 287.671875 C-262.69422852 287.04522949 -263.09158203 286.41858398 -263.50097656 285.77294922 C-263.9131543 285.10537598 -264.32533203 284.43780273 -264.75 283.75 C-265.18538086 283.04762207 -265.62076172 282.34524414 -266.06933594 281.62158203 C-273.16104451 269.99459891 -278.96877083 257.64718321 -284 245 C-284.31372559 244.21415527 -284.62745117 243.42831055 -284.95068359 242.61865234 C-287.75646605 235.29637477 -289.5430776 227.92081159 -291.125 220.25 C-291.51292725 218.37924805 -291.51292725 218.37924805 -291.90869141 216.47070312 C-292.62103173 212.98328907 -293.31524074 209.49292024 -294 206 C-294.22913086 204.86208008 -294.22913086 204.86208008 -294.46289062 203.70117188 C-303.72580657 156.1977687 -288.47939066 103.77364362 -262.40722656 64.07080078 C-255.91743745 54.52076761 -248.36226368 45.80276073 -240.39599609 37.46337891 C-239.46646889 36.4889847 -238.54227418 35.5094751 -237.62353516 34.52490234 C-177.37387438 -29.9297048 -76.06926084 -40.95567375 0 0 Z " fill="#272727" transform="translate(357,84)"/>
<path d="M0 0 C10.55808656 3.07517084 10.55808656 3.07517084 15 5 C14.76023437 5.60585937 14.52046875 6.21171875 14.2734375 6.8359375 C13.82871094 8.09277344 13.82871094 8.09277344 13.375 9.375 C12.92253906 10.59316406 12.92253906 10.59316406 12.4609375 11.8359375 C11.32111085 19.66017132 14.79746248 28.25488248 16.9140625 35.75 C17.34442307 37.29170113 17.34442307 37.29170113 17.78347778 38.86454773 C18.40366427 41.08481535 19.02549201 43.30462505 19.64880371 45.52401733 C20.98363299 50.27699939 22.31051244 55.03218944 23.63781738 59.78727722 C24.33818716 62.29618681 25.03895863 64.8049843 25.7401123 67.31367493 C29.42100154 80.48881602 33.06153227 93.67502189 36.69598389 106.86303711 C37.73258485 110.6243097 38.7698002 114.38541243 39.80712891 118.14648438 C40.44958708 120.4765507 41.0920045 122.80662826 41.734375 125.13671875 C42.02128204 126.17728928 42.30818909 127.2178598 42.60379028 128.28996277 C43.14202629 130.24344029 43.67874876 132.19733564 44.21374512 134.15170288 C44.75626628 136.11704708 45.30872664 138.0796653 45.8692627 140.03994751 C46.14475952 141.01394501 46.42025635 141.9879425 46.70410156 142.99145508 C47.07755707 144.29268059 47.07755707 144.29268059 47.45855713 145.62019348 C48 148 48 148 48 152 C44.04 152.99 40.08 153.98 36 155 C28.575 128.27 28.575 128.27 21 101 C7.8 100.34 -5.4 99.68 -19 99 C-19.99 102.63 -20.98 106.26 -22 110 C-22.59465936 111.8532089 -23.21076238 113.70004129 -23.86938477 115.53149414 C-24.36989098 116.93202782 -24.36989098 116.93202782 -24.88050842 118.3608551 C-25.40565285 119.80838417 -25.40565285 119.80838417 -25.94140625 121.28515625 C-26.30975082 122.30806259 -26.6780954 123.33096893 -27.05760193 124.38487244 C-27.82944908 126.52420971 -28.60348587 128.66275817 -29.37963867 130.80053711 C-30.56975185 134.08249834 -31.7490831 137.36820441 -32.92773438 140.65429688 C-33.68164775 142.73981622 -34.43618252 144.82511106 -35.19140625 146.91015625 C-35.54352676 147.89339371 -35.89564728 148.87663116 -36.25843811 149.8896637 C-36.58895676 150.79498337 -36.9194754 151.70030304 -37.26000977 152.63305664 C-37.5485231 153.43038712 -37.83703644 154.22771759 -38.1342926 155.04920959 C-39 157 -39 157 -41 159 C-47.93 156.525 -47.93 156.525 -55 154 C-54.26585235 150.32926177 -53.46997008 147.23355203 -52.23413086 143.75073242 C-51.86880249 142.71589722 -51.50347412 141.68106201 -51.1270752 140.61486816 C-50.74353882 139.53926636 -50.36000244 138.46366455 -49.96484375 137.35546875 C-49.61200317 136.35793579 -49.2591626 135.36040283 -48.89562988 134.3326416 C-47.57997781 130.61627375 -46.2583853 126.90201106 -44.9375 123.1875 C-40.5134375 110.7196875 -40.5134375 110.7196875 -36 98 C-81.54 96.02 -81.54 96.02 -128 94 C-128 89.71 -128 85.42 -128 81 C-123.24983326 81.11969916 -118.4998539 81.24368887 -113.75 81.375 C-113.00958466 81.3954538 -112.26916931 81.41590759 -111.50631714 81.4369812 C-101.87092934 81.70889351 -92.24195739 82.05948136 -82.61328125 82.51171875 C-81.17361496 82.57924347 -81.17361496 82.57924347 -79.7048645 82.64813232 C-75.00106947 82.87078841 -70.29774522 83.10088568 -65.59472656 83.33935547 C-54.05265003 83.90893469 -42.55563238 84.11150099 -31 84 C-30.78639328 83.40263031 -30.57278656 82.80526062 -30.35270691 82.18978882 C-12.22576685 31.50225432 -12.22576685 31.50225432 -6.06387329 14.63604736 C-5.38617957 12.78060823 -4.71101271 10.92424679 -4.03588867 9.06787109 C-3.44191284 7.44872803 -3.44191284 7.44872803 -2.8359375 5.796875 C-2.33392822 4.42547363 -2.33392822 4.42547363 -1.82177734 3.02636719 C-1 1 -1 1 0 0 Z " fill="#FDFDFD" transform="translate(287,245)"/>
<path d="M0 0 C3.96 0 7.92 0 12 0 C12.99389452 2.98168355 13.24235207 5.29485317 13.43310547 8.41870117 C13.50353561 9.54107681 13.57396576 10.66345245 13.64653015 11.81983948 C13.71934708 13.04847214 13.792164 14.2771048 13.8671875 15.54296875 C13.94649002 16.8306163 14.02579254 18.11826385 14.10749817 19.44493103 C14.32362523 22.96068371 14.53432158 26.47674276 14.74380112 29.99289703 C14.87487117 32.18534496 15.00753719 34.37769029 15.14077759 36.57000732 C16.54810112 59.72888667 17.84605821 82.89275669 19.04833984 106.06323242 C19.16107525 108.23226211 19.27386614 110.40128891 19.38671875 112.5703125 C19.43937393 113.58520752 19.49202911 114.60010254 19.54627991 115.64575195 C19.90296364 122.42425623 20.32430759 129.19497351 20.82128906 135.96459961 C21.09712398 140.64964812 21.06426998 145.30829143 21 150 C16.71 150 12.42 150 8 150 C6.46900531 127.6741597 5.09245115 105.34065371 3.76782227 83.00170898 C3.54687922 79.27605889 3.32485702 75.5504757 3.10180664 71.82495117 C0.97406872 36.28524803 0.97406872 36.28524803 0.3515625 23.4609375 C0.31369125 22.69168442 0.27582001 21.92243134 0.23680115 21.12986755 C-0.085759 14.08571659 -0.09745919 7.04954812 0 0 Z " fill="#FCFCFC" transform="translate(357,252)"/>
<path d="M0 0 C2.20153982 2.20153982 2.52599791 3.26056559 3.32861328 6.20263672 C3.56871124 7.07048798 3.8088092 7.93833923 4.05618286 8.83248901 C4.43442703 10.24185226 4.43442703 10.24185226 4.8203125 11.6796875 C5.21559647 13.12615158 5.21559647 13.12615158 5.61886597 14.60183716 C6.17512365 16.64366383 6.72802217 18.68640814 7.27783203 20.72998047 C8.12032362 23.85763945 8.9753398 26.98167318 9.83203125 30.10546875 C10.37054486 32.08833727 10.90832953 34.07140392 11.4453125 36.0546875 C11.82962936 37.45797806 11.82962936 37.45797806 12.22171021 38.88961792 C12.45550385 39.7637735 12.68929749 40.63792908 12.93017578 41.53857422 C13.13732208 42.30531464 13.34446838 43.07205505 13.55789185 43.86203003 C14 46 14 46 14 50 C3.59712876 50.10507951 -6.63522807 49.97769253 -17 49 C-11.61650697 32.56068305 -5.93550451 16.24802909 0 0 Z " fill="#2B2B2B" transform="translate(290,282)"/>
</svg>
